<svg height="512pt" viewBox="0 0 512 512" width="512pt" xmlns="http://www.w3.org/2000/svg"><path d="m512 256c0 141.386719-114.613281 256-256 256s-256-114.613281-256-256 114.613281-256 256-256 256 114.613281 256 256zm0 0" fill="#6ce8ec"/><path d="m512 256c0-16.085938-1.5-31.820312-4.339844-47.085938l-84.25-83.113281-.277344.542969-32.546874-33.679688-22.816407 72.050782-76.078125-76.082032-201.710937 303.074219 115.25 115.25c16.410156 3.300781 33.386719 5.042969 50.769531 5.042969 141.386719 0 256-114.613281 256-256zm0 0" fill="#12c8cc"/><path d="m400.726562 115.175781c-.800781 0-1.589843.042969-2.371093.101563.074219-.855469.121093-1.722656.121093-2.601563 0-16.292969-13.210937-29.5-29.5-29.5-5.628906 0-10.886718 1.578125-15.359374 4.308594-5.015626-9.121094-14.71875-15.308594-25.863282-15.308594-16.292968 0-29.5 13.207031-29.5 29.5s13.207032 29.5 29.5 29.5c5.625 0 10.882813-1.578125 15.355469-4.308593 5.019531 9.121093 14.71875 15.308593 25.867187 15.308593.796876 0 1.585938-.039062 2.371094-.101562-.078125.855469-.121094 1.722656-.121094 2.601562 0 16.292969 13.207032 29.5 29.5 29.5 16.289063 0 29.5-13.207031 29.5-29.5s-13.210937-29.5-29.5-29.5zm0 0" fill="#d72878"/><path d="m261.914062 81.957031c-10.855468 3.457031-18.375 12.722657-20.671874 23.742188-8.246094-7.660157-19.738282-10.867188-30.59375-7.410157-10.855469 3.460938-18.378907 12.726563-20.671876 23.742188-8.25-7.660156-19.742187-10.863281-30.597656-7.40625-10.855468 3.457031-18.375 12.722656-20.671875 23.742188-.894531-.832032-1.828125-1.597657-2.792969-2.316407l-5.691406 23.632813 172.054688-54.816406c-5.714844-17.933594-23.785156-28.191407-40.363282-22.910157zm0 0" fill="#ff468c"/><path d="m261.914062 81.957031c-2.160156.6875-4.183593 1.613281-6.0625 2.730469v34.972656l46.425782-14.792968c-5.714844-17.933594-23.785156-28.191407-40.363282-22.910157zm0 0" fill="#d72878"/><path d="m89.980469 165.097656h332.039062v226.609375h-332.039062zm0 0" fill="#fed59d"/><path d="m255.851562 165.097656h166.167969v226.609375h-166.167969zm0 0" fill="#fda637"/><path d="m89.980469 223.582031h332.039062v109.640625h-332.039062zm0 0" fill="#fff"/><path d="m255.851562 223.582031h166.167969v109.640625h-166.167969zm0 0" fill="#f9efef"/><path d="m89.980469 165.097656 212.253906-60.144531s117.785156 1.660156 117.785156 60.144531zm0 0" fill="#fff"/><path d="m302.234375 104.953125-46.382813 13.144531v47h164.167969c0-58.488281-117.785156-60.144531-117.785156-60.144531zm0 0" fill="#f9efef"/><path d="m422.019531 165.097656c0-18.824218-14.105469-34.085937-31.5-34.085937-11.394531 0-21.371093 6.546875-26.90625 16.347656-5.53125-9.800781-15.511719-16.347656-26.902343-16.347656-11.394532 0-21.371094 6.546875-26.90625 16.347656-5.53125-9.800781-15.507813-16.347656-26.902344-16.347656-11.390625 0-21.371094 6.546875-26.90625 16.347656-5.53125-9.800781-15.507813-16.347656-26.902344-16.347656-11.390625 0-21.371094 6.546875-26.902344 16.347656-5.535156-9.800781-15.511718-16.347656-26.90625-16.347656-11.390625 0-21.371094 6.546875-26.902344 16.347656-5.535156-9.800781-15.511718-16.347656-26.90625-16.347656-17.398437 0-31.5 15.261719-31.5 34.085937zm0 0" fill="#ff73a5"/><path d="m390.519531 131.015625c-11.394531 0-21.371093 6.542969-26.90625 16.34375-5.53125-9.800781-15.511719-16.34375-26.902343-16.34375-11.394532 0-21.371094 6.542969-26.90625 16.34375-5.53125-9.800781-15.507813-16.34375-26.902344-16.34375-11.394532 0-21.371094 6.542969-26.90625 16.34375-.046875-.082031-.101563-.164063-.148438-.246094v17.984375h166.171875c0-18.824218-14.105469-34.082031-31.5-34.082031zm0 0" fill="#ff468c"/><path d="m95.222656 235.355469c-1.78125 0-3.527344.046875-5.242187.136719v85.277343c1.714843.429688 3.460937.679688 5.242187.679688 22.074219 0 39.972656-35.226563 39.972656-57.304688 0-22.074219-17.898437-28.789062-39.972656-28.789062zm0 0" fill="#ff73a5"/><path d="m242.378906 264.144531c0 22.078125-17.894531 57.304688-39.972656 57.304688s-39.972656-35.226563-39.972656-57.304688 17.894531-28.792969 39.972656-28.792969 39.972656 6.71875 39.972656 28.792969zm0 0" fill="#ff73a5"/><g fill="#ff468c"><path d="m349.566406 264.144531c0 22.078125-17.894531 57.304688-39.972656 57.304688s-39.976562-35.226563-39.976562-57.304688 17.898437-28.792969 39.976562-28.792969 39.972656 6.71875 39.972656 28.792969zm0 0"/><path d="m422.019531 235.492188c-1.714843-.089844-3.460937-.136719-5.242187-.136719-22.074219 0-39.972656 6.714843-39.972656 28.789062 0 22.078125 17.898437 57.304688 39.972656 57.304688 1.78125 0 3.527344-.25 5.242187-.679688zm0 0"/></g></svg>