<svg id="Capa_1" enable-background="new 0 0 512 512" height="512" viewBox="0 0 512 512" width="512" xmlns="http://www.w3.org/2000/svg"><path d="m477.33 445.218h-442.66c0-59.12 23.02-114.7 64.83-156.51 41.53-41.53 96.67-64.53 155.37-64.81.38-.01.75-.01 1.13-.01 59.12 0 114.7 23.02 156.5 64.82 41.81 41.81 64.83 97.39 64.83 156.51z" fill="#ffebdc"/><path d="m477.33 445.218h-222.46v-221.32c.38-.01.75-.01 1.13-.01 59.12 0 114.7 23.02 156.5 64.82 41.81 41.81 64.83 97.39 64.83 156.51z" fill="#dbc6b6"/><path d="m180.762 107.969c4.519 5.782 5.035 15.199 1.175 21.44l-9.199 14.873h35.25c9.936-16.922 8.521-39.294-3.588-54.786l-1.162-1.487c-4.52-5.782-5.035-15.2-1.175-21.441l9.147-14.786h-35.248c-9.882 16.913-8.45 39.235 3.638 54.701z" fill="#f8c4b8"/><path d="m271.985 144.282h-35.25l9.2-14.87c3.86-6.24 3.35-15.66-1.17-21.44l-1.16-1.49c-12.09-15.46-13.52-37.79-3.64-54.7h35.25l-9.15 14.79c-3.86 6.24-3.35 15.65 1.17 21.44l1.17 1.48c12.1 15.5 13.52 37.87 3.58 54.79z" fill="#f8c4b8"/><path d="m271.985 144.282h-19.5l9.2-14.87c3.86-6.24 3.35-15.66-1.17-21.44l-1.16-1.49c-12.09-15.46-13.52-37.79-3.64-54.7h19.5l-9.15 14.79c-3.86 6.24-3.35 15.65 1.17 21.44l1.17 1.48c12.1 15.5 13.52 37.87 3.58 54.79z" fill="#ffb09d"/><path d="m308.763 107.969c4.519 5.782 5.035 15.199 1.175 21.44l-9.199 14.873h35.25c9.936-16.922 8.521-39.294-3.588-54.786l-1.162-1.487c-4.52-5.782-5.035-15.2-1.175-21.441l9.147-14.786h-35.248c-9.882 16.913-8.45 39.235 3.638 54.701z" fill="#ffb09d"/><path d="m160.384 355.626-22.677-19.642c5.583-6.445 14.135-14.713 21.28-20.574l19.025 23.195c-5.869 4.816-13.118 11.814-17.628 17.021z" fill="#dbc6b6"/><path d="m129.553 438.372h-30c0-31.349 9.242-61.6 26.728-87.481l24.858 16.794c-14.122 20.903-21.586 45.346-21.586 70.687z" fill="#dbc6b6"/><path d="m0 430.218h512v30h-512z" fill="#845634"/><path d="m294.2 219.588c0 21.73-17.61 39.34-39.33 39.34-21.73 0-39.34-17.61-39.34-39.34 0-21.72 17.61-39.33 39.34-39.33 21.72 0 39.33 17.61 39.33 39.33z" fill="#845634"/><g fill="#663914"><path d="m254.87 258.928v-78.67c21.72 0 39.33 17.61 39.33 39.33 0 21.73-17.61 39.34-39.33 39.34z"/><path d="m254.87 430.218h257.13v30h-257.13z"/></g></svg>